<?xml version="1.0" encoding="UTF-8"?>
<svg width="500" height="600" viewBox="0 0 5 6" xmlns="http://www.w3.org/2000/svg">

  <!-- U shape - before the grid so it appears over anything that gets drawn -->
  <path d="M1,1 L3,1 L3,4 L2,4 A1 1 1 0 1 1,3 z" fill="#09f" />

  <!-- Connector -->
  <path d="M3,1 L3,4 L2,5 L2,2 z" fill="#0077b1" />

  <!-- P shape -->
  <path d="M2,2 L3,2 A1 1 0 0 1 3 4 L2,5 z" fill="#61135f" />

  <!-- Reference Grid (for removal later) -->
  <g stroke="#99F" stroke-width="0.02">
    <path d="M0,0 L5,0 M0,1 L5,1 M0,2 L5,2 M0,3 L5,3 M0,4 L5,4 M0,5 L5,5 M0,6 L5,6" />
    <path d="M0,0 L0,6 M1,0 L1,6 M2,0 L2,6 M3,0 L3,6 M4,0 L4,6 M5,0 L5,6" />
  </g>

</svg>
