<?xml version="1.0" encoding="UTF-8"?>
<svg width="500" height="600" viewBox="0 0 500 600" xmlns="http://www.w3.org/2000/svg">

  <!-- U shape - before the grid so it appears over anything that gets drawn -->
  <path d="M100,100 L300,100 L300,400 L200,400 C150,400 100,350 100,300 z"  fill="#009fff" />

  <!-- Connector -->
  <path d="M300,100 L300,400 L200,500 L200,200 z" fill="#0077b1" />

  <!-- P shape -->
  <path d="M200,200 L300,200 A100 100 0 0 1 300 400 L300,400 L200,500 z" fill="#61135f" />

  <!-- Reference Grid (for removal later) -->
  <g id="grid" stroke="#99F">
    <path d="M0,0 L500,0 M0,100 L500,100 M0,200 L500,200 M0,300 L500,300 M0,400 L500,400 M0,500 L500,500 M0,600 L500,600" />
    <path d="M0,0 L0,600 M100,0 L100,600 M200,0 L200,600 M300,0 L300,600 M400,0 L400,600 M500,0 L500,600" />
  </g>
</svg>
